<svg width="94" height="26" viewBox="0 0 94 26" fill="none" xmlns="http://www.w3.org/2000/svg">
<rect x="22.3392" y="10.4" width="13.2078" height="13.2078" transform="rotate(135 22.3392 10.4)" stroke="#5D3CBB" stroke-width="1.5"/>
<rect x="22.3392" y="15.6" width="13.2078" height="13.2078" transform="rotate(135 22.3392 15.6)" stroke="#5D3CBB" stroke-width="1.5"/>
<rect x="15.6001" y="22.3394" width="13.2078" height="13.2078" transform="rotate(-135 15.6001 22.3394)" stroke="#5D3CBB" stroke-width="1.5"/>
<rect x="10.3999" y="22.3394" width="13.2078" height="13.2078" transform="rotate(-135 10.3999 22.3394)" stroke="#5D3CBB" stroke-width="1.5"/>
<path d="M34.584 12.625V15.0977L35.6152 15.2617V16H32.5508V15.2617L33.5059 15.0977V8.37695L32.5508 8.21289V7.46875H35.0469L37.7949 13.9434H37.8301L40.4902 7.46875H43.0625V8.21289L42.1074 8.37695V15.0977L43.0625 15.2617V16H39.998V15.2617L41.0059 15.0977V9.04492L40.9766 9.03906L38.2051 15.6953H37.4375L34.5723 9.05078L34.543 9.05664L34.584 12.625ZM46.9355 16.123C46.3496 16.123 45.8398 15.9883 45.4062 15.7188C44.9727 15.4531 44.6367 15.082 44.3984 14.6055C44.1641 14.1289 44.0469 13.5781 44.0469 12.9531V12.6953C44.0469 12.0898 44.1719 11.5508 44.4219 11.0781C44.668 10.6016 44.9961 10.2266 45.4062 9.95312C45.8203 9.67969 46.2715 9.54297 46.7598 9.54297C47.3301 9.54297 47.8086 9.66016 48.1953 9.89453C48.5781 10.1289 48.8672 10.459 49.0625 10.8848C49.2578 11.3066 49.3555 11.8047 49.3555 12.3789V13.0996H45.2422L45.2246 13.1289C45.2285 13.5273 45.3008 13.8867 45.4414 14.207C45.5781 14.5234 45.7715 14.7715 46.0215 14.9512C46.2754 15.1309 46.5801 15.2207 46.9355 15.2207C47.3262 15.2207 47.668 15.166 47.9609 15.0566C48.2578 14.9434 48.5137 14.7891 48.7285 14.5938L49.1797 15.3438C48.9531 15.5625 48.6523 15.748 48.2773 15.9004C47.9062 16.0488 47.459 16.123 46.9355 16.123ZM45.2656 12.168L45.2773 12.1973H48.2012V12.0449C48.2012 11.7363 48.1484 11.4629 48.043 11.2246C47.9336 10.9824 47.7715 10.793 47.5566 10.6562C47.3457 10.5195 47.0801 10.4512 46.7598 10.4512C46.5059 10.4512 46.2715 10.5254 46.0566 10.6738C45.6191 10.9902 45.3555 11.4883 45.2656 12.168ZM56.4629 9.66016V10.3984L55.6777 10.5684V15.918C55.6777 16.4688 55.5762 16.9395 55.373 17.3301C55.1699 17.7246 54.8711 18.0273 54.4766 18.2383C54.082 18.4531 53.6035 18.5605 53.041 18.5605C52.7363 18.5605 52.4062 18.5176 52.0508 18.4316C51.6953 18.3496 51.3828 18.2363 51.1133 18.0918L51.4121 17.1953C51.627 17.3086 51.8809 17.4023 52.1738 17.4766C52.4668 17.5508 52.752 17.5879 53.0293 17.5879C53.5449 17.5879 53.9219 17.4434 54.1602 17.1543C54.4023 16.8652 54.5234 16.4531 54.5234 15.918V15.3145C54.1016 15.8535 53.5215 16.123 52.7832 16.123C52.2676 16.123 51.8223 15.9941 51.4473 15.7363C51.0723 15.4824 50.7832 15.127 50.5801 14.6699C50.3809 14.209 50.2812 13.6758 50.2812 13.0703V12.9473C50.2812 12.2598 50.3828 11.6641 50.5859 11.1602C50.7852 10.6484 51.0723 10.252 51.4473 9.9707C51.8223 9.68555 52.2715 9.54297 52.7949 9.54297C53.5801 9.54297 54.1816 9.84766 54.5996 10.457L54.7051 9.66016H56.4629ZM54.5234 14.2773V11.3594C54.375 11.0898 54.1816 10.877 53.9434 10.7207C53.7051 10.5605 53.418 10.4805 53.082 10.4805C52.7148 10.4805 52.4102 10.5859 52.168 10.7969C51.9219 11.0078 51.7383 11.2988 51.6172 11.6699C51.4961 12.0371 51.4355 12.4629 51.4355 12.9473V13.0703C51.4355 13.707 51.5703 14.2188 51.8398 14.6055C52.1094 14.9922 52.5195 15.1855 53.0703 15.1855C53.418 15.1855 53.709 15.1074 53.9434 14.9512C54.1777 14.791 54.3711 14.5664 54.5234 14.2773ZM59.0938 16.123C58.4336 16.123 57.9316 15.9629 57.5879 15.6426C57.2441 15.3184 57.0723 14.8633 57.0723 14.2773C57.0723 13.8711 57.1836 13.5195 57.4062 13.2227C57.625 12.9219 57.9434 12.6895 58.3613 12.5254C58.7793 12.3613 59.2793 12.2793 59.8613 12.2793H60.9922V11.6582C60.9922 11.2754 60.875 10.9785 60.6406 10.7676C60.4102 10.5566 60.084 10.4512 59.6621 10.4512C59.3965 10.4512 59.166 10.4844 58.9707 10.5508C58.7754 10.6133 58.5977 10.7012 58.4375 10.8145L58.3145 11.6992H57.4238V10.2461C57.998 9.77734 58.75 9.54297 59.6797 9.54297C60.4492 9.54297 61.0527 9.72656 61.4902 10.0938C61.9277 10.4609 62.1465 10.9863 62.1465 11.6699V14.7227C62.1465 14.8047 62.1465 14.8848 62.1465 14.9629C62.1504 15.041 62.1562 15.1191 62.1641 15.1973L62.7793 15.2617V16H61.1211C61.0547 15.6797 61.0137 15.3887 60.998 15.127C60.7754 15.4121 60.4961 15.6504 60.1602 15.8418C59.8281 16.0293 59.4727 16.123 59.0938 16.123ZM59.2637 15.1562C59.6465 15.1562 59.9961 15.0645 60.3125 14.8809C60.6289 14.6973 60.8555 14.4766 60.9922 14.2188V13.0703H59.8203C59.2891 13.0703 58.8906 13.1973 58.625 13.4512C58.3594 13.7051 58.2266 13.9883 58.2266 14.3008C58.2266 14.8711 58.5723 15.1562 59.2637 15.1562ZM65.8262 12.625V15.0977L66.8574 15.2617V16H63.793V15.2617L64.748 15.0977V8.37695L63.793 8.21289V7.46875H66.2891L69.0371 13.9434H69.0723L71.7324 7.46875H74.3047V8.21289L73.3496 8.37695V15.0977L74.3047 15.2617V16H71.2402V15.2617L72.248 15.0977V9.04492L72.2188 9.03906L69.4473 15.6953H68.6797L65.8145 9.05078L65.7852 9.05664L65.8262 12.625ZM76.1445 8.0957V6.85938H77.3574V8.0957H76.1445ZM77.3574 9.66016V15.0977L78.3125 15.2617V16H75.248V15.2617L76.2031 15.0977V10.5684L75.248 10.4043V9.66016H77.3574ZM81.2188 15.0977L82.1738 15.2617V16H79.1094V15.2617L80.0645 15.0977V10.5684L79.1094 10.4043V9.66016H81.0957L81.1777 10.6035C81.3887 10.2676 81.6523 10.0078 81.9688 9.82422C82.2891 9.63672 82.6523 9.54297 83.0586 9.54297C83.7422 9.54297 84.2715 9.74414 84.6465 10.1465C85.0215 10.5449 85.209 11.1621 85.209 11.998V15.0977L86.1641 15.2617V16H83.0996V15.2617L84.0547 15.0977V12.0215C84.0547 11.4629 83.9434 11.0664 83.7207 10.832C83.502 10.5977 83.166 10.4805 82.7129 10.4805C82.3809 10.4805 82.0859 10.5605 81.8281 10.7207C81.5742 10.8809 81.3711 11.0996 81.2188 11.377V15.0977ZM89.4746 16.123C88.9629 16.123 88.5215 15.9941 88.1504 15.7363C87.7832 15.4824 87.5 15.127 87.3008 14.6699C87.1055 14.2129 87.0078 13.6797 87.0078 13.0703V12.9473C87.0078 12.2715 87.1055 11.6758 87.3008 11.1602C87.4961 10.6484 87.7793 10.252 88.1504 9.9707C88.5215 9.68555 88.9668 9.54297 89.4863 9.54297C89.8613 9.54297 90.1914 9.61328 90.4766 9.75391C90.7656 9.89062 91.0117 10.0898 91.2148 10.3516V7.76758L90.2598 7.60352V6.85938H92.3691V15.0977L93.3242 15.2617V16H91.3672L91.2734 15.2441C90.8516 15.8301 90.252 16.123 89.4746 16.123ZM89.7676 15.1855C90.1113 15.1855 90.4004 15.1074 90.6348 14.9512C90.8691 14.7949 91.0625 14.5742 91.2148 14.2891V11.3477C91.0664 11.082 90.873 10.8711 90.6348 10.7148C90.3965 10.5586 90.1113 10.4805 89.7793 10.4805C89.416 10.4805 89.1133 10.584 88.8711 10.791C88.6328 11.002 88.4551 11.293 88.3379 11.6641C88.2207 12.0312 88.1621 12.459 88.1621 12.9473V13.0703C88.1621 13.707 88.293 14.2188 88.5547 14.6055C88.8164 14.9922 89.2207 15.1855 89.7676 15.1855Z" fill="#5D3CBB"/>
</svg>
